<svg id="SvgjsSvg1066" width="375" height="341" xmlns="http://www.w3.org/2000/svg" version="1.1" xmlns:xlink="http://www.w3.org/1999/xlink" xmlns:svgjs="http://svgjs.com/svgjs"><defs id="SvgjsDefs1067"><marker id="SvgjsMarker1096" markerWidth="16" markerHeight="12" refX="16" refY="6" viewBox="0 0 16 12" orient="auto" markerUnits="userSpaceOnUse" stroke-dasharray="0,0"><path id="SvgjsPath1097" d="M0,2 L14,6 L0,11 L0,2" fill="#323232" stroke="#323232" stroke-width="2"></path></marker><marker id="SvgjsMarker1104" markerWidth="16" markerHeight="12" refX="16" refY="6" viewBox="0 0 16 12" orient="auto" markerUnits="userSpaceOnUse" stroke-dasharray="0,0"><path id="SvgjsPath1105" d="M0,2 L14,6 L0,11 L0,2" fill="#323232" stroke="#323232" stroke-width="2"></path></marker><marker id="SvgjsMarker1112" markerWidth="16" markerHeight="12" refX="16" refY="6" viewBox="0 0 16 12" orient="auto" markerUnits="userSpaceOnUse" stroke-dasharray="0,0"><path id="SvgjsPath1113" d="M0,2 L14,6 L0,11 L0,2" fill="#323232" stroke="#323232" stroke-width="2"></path></marker><marker id="SvgjsMarker1120" markerWidth="16" markerHeight="12" refX="16" refY="6" viewBox="0 0 16 12" orient="auto" markerUnits="userSpaceOnUse" stroke-dasharray="0,0"><path id="SvgjsPath1121" d="M0,2 L14,6 L0,11 L0,2" fill="#323232" stroke="#323232" stroke-width="2"></path></marker></defs><g id="SvgjsG1068" transform="translate(25,25)"><path id="SvgjsPath1069" d="M 0 4Q 0 0 4 0L 96 0Q 100 0 100 4L 100 66Q 100 70 96 70L 4 70Q 0 70 0 66Z" stroke="rgba(50,50,50,1)" stroke-width="2" fill-opacity="1" fill="#ffffff"></path><g id="SvgjsG1070"><text id="SvgjsText1071" font-family="微软雅黑" text-anchor="middle" font-size="13px" width="80px" fill="#323232" font-weight="400" align="middle" anchor="middle" family="微软雅黑" size="13px" weight="400" font-style="" opacity="1" y="25.05" transform="rotate(0)"><tspan id="SvgjsTspan1072" dy="16" x="50"><tspan id="SvgjsTspan1073" style="text-decoration:;">Annotation</tspan></tspan></text></g></g><g id="SvgjsG1074" transform="translate(250,137)"><path id="SvgjsPath1075" d="M 0 4Q 0 0 4 0L 96 0Q 100 0 100 4L 100 66Q 100 70 96 70L 4 70Q 0 70 0 66Z" stroke="rgba(50,50,50,1)" stroke-width="2" fill-opacity="1" fill="#ffffff"></path><g id="SvgjsG1076"><text id="SvgjsText1077" font-family="微软雅黑" text-anchor="middle" font-size="13px" width="80px" fill="#323232" font-weight="400" align="middle" anchor="middle" family="微软雅黑" size="13px" weight="400" font-style="" opacity="1" y="17.05" transform="rotate(0)"><tspan id="SvgjsTspan1078" dy="16" x="50"><tspan id="SvgjsTspan1079" style="text-decoration:;">Annotation </tspan></tspan><tspan id="SvgjsTspan1080" dy="16" x="50"><tspan id="SvgjsTspan1081" style="text-decoration:;">Processor</tspan></tspan></text></g></g><g id="SvgjsG1082" transform="translate(25,137)"><path id="SvgjsPath1083" d="M 0 4Q 0 0 4 0L 96 0Q 100 0 100 4L 100 66Q 100 70 96 70L 4 70Q 0 70 0 66Z" stroke="rgba(50,50,50,1)" stroke-width="2" fill-opacity="1" fill="#ffffff"></path><g id="SvgjsG1084"><text id="SvgjsText1085" font-family="微软雅黑" text-anchor="middle" font-size="13px" width="80px" fill="#323232" font-weight="400" align="middle" anchor="middle" family="微软雅黑" size="13px" weight="400" font-style="" opacity="1" y="25.05" transform="rotate(0)"><tspan id="SvgjsTspan1086" dy="16" x="50"><tspan id="SvgjsTspan1087" style="text-decoration:;">Lib</tspan></tspan></text></g></g><g id="SvgjsG1088" transform="translate(25,246)"><path id="SvgjsPath1089" d="M 0 4Q 0 0 4 0L 96 0Q 100 0 100 4L 100 66Q 100 70 96 70L 4 70Q 0 70 0 66Z" stroke="rgba(50,50,50,1)" stroke-width="2" fill-opacity="1" fill="#ffffff"></path><g id="SvgjsG1090"><text id="SvgjsText1091" font-family="微软雅黑" text-anchor="middle" font-size="13px" width="80px" fill="#323232" font-weight="400" align="middle" anchor="middle" family="微软雅黑" size="13px" weight="400" font-style="" opacity="1" y="25.05" transform="rotate(0)"><tspan id="SvgjsTspan1092" dy="16" x="50"><tspan id="SvgjsTspan1093" style="text-decoration:;">App</tspan></tspan></text></g></g><g id="SvgjsG1094"><path id="SvgjsPath1095" d="M75 137L75 116L75 116L75 95" stroke="#323232" stroke-width="2" fill="none" marker-end="url(#SvgjsMarker1096)"></path><rect id="SvgjsRect1098" width="52" height="16" x="49" y="108" fill="#ffffff"></rect><text id="SvgjsText1099" font-family="微软雅黑" text-anchor="middle" font-size="13px" width="52px" fill="#323232" font-weight="400" align="top" anchor="middle" family="微软雅黑" size="13px" weight="400" font-style="" opacity="1" y="106.05" transform="rotate(0)"><tspan id="SvgjsTspan1100" dy="16" x="75"><tspan id="SvgjsTspan1101" style="text-decoration:;">传递依赖</tspan></tspan></text></g><g id="SvgjsG1102"><path id="SvgjsPath1103" d="M75 246L75 226.5L75 226.5L75 207" stroke="#323232" stroke-width="2" fill="none" marker-end="url(#SvgjsMarker1104)"></path><rect id="SvgjsRect1106" width="26" height="16" x="62" y="218.5" fill="#ffffff"></rect><text id="SvgjsText1107" font-family="微软雅黑" text-anchor="middle" font-size="13px" width="26px" fill="#323232" font-weight="400" align="top" anchor="middle" family="微软雅黑" size="13px" weight="400" font-style="" opacity="1" y="216.55" transform="rotate(0)"><tspan id="SvgjsTspan1108" dy="16" x="75"><tspan id="SvgjsTspan1109" style="text-decoration:;">入口</tspan></tspan></text></g><g id="SvgjsG1110"><path id="SvgjsPath1111" d="M300 137L300 60L125 60" stroke="#323232" stroke-width="2" fill="none" marker-end="url(#SvgjsMarker1112)"></path><rect id="SvgjsRect1114" width="26" height="16" x="238" y="52" fill="#ffffff"></rect><text id="SvgjsText1115" font-family="微软雅黑" text-anchor="middle" font-size="13px" width="26px" fill="#323232" font-weight="400" align="top" anchor="middle" family="微软雅黑" size="13px" weight="400" font-style="" opacity="1" y="50.05" transform="rotate(0)"><tspan id="SvgjsTspan1116" dy="16" x="251"><tspan id="SvgjsTspan1117" style="text-decoration:;">处理</tspan></tspan></text></g><g id="SvgjsG1118"><path id="SvgjsPath1119" d="M125 281L300 281L300 207" stroke="#323232" stroke-width="2" fill="none" marker-end="url(#SvgjsMarker1120)"></path><rect id="SvgjsRect1122" width="26" height="16" x="236.5" y="273" fill="#ffffff"></rect><text id="SvgjsText1123" font-family="微软雅黑" text-anchor="middle" font-size="13px" width="26px" fill="#323232" font-weight="400" align="top" anchor="middle" family="微软雅黑" size="13px" weight="400" font-style="" opacity="1" y="271.05" transform="rotate(0)"><tspan id="SvgjsTspan1124" dy="16" x="249.5"><tspan id="SvgjsTspan1125" style="text-decoration:;">使用</tspan></tspan></text></g></svg>